<svg width="100" height="100" viewBox="0 0 100 100" fill="none" xmlns="http://www.w3.org/2000/svg">
<path d="M50 19.7917C49.0972 19.7917 48.3507 19.4965 47.7604 18.9063C47.1701 18.316 46.875 17.5694 46.875 16.6667V7.29167C46.875 6.38889 47.1701 5.64236 47.7604 5.05208C48.3507 4.46181 49.0972 4.16667 50 4.16667C50.9028 4.16667 51.6493 4.46181 52.2396 5.05208C52.8299 5.64236 53.125 6.38889 53.125 7.29167V16.6667C53.125 17.5694 52.8299 18.316 52.2396 18.9063C51.6493 19.4965 50.9028 19.7917 50 19.7917ZM71.3542 28.6458C70.7292 28.0208 70.4167 27.2917 70.4167 26.4583C70.4167 25.625 70.7292 24.8958 71.3542 24.2708L77.9167 17.6042C78.5417 16.9792 79.2882 16.6667 80.1562 16.6667C81.0243 16.6667 81.7708 16.9792 82.3958 17.6042C83.0208 18.2292 83.3333 18.9583 83.3333 19.7917C83.3333 20.625 83.0208 21.3542 82.3958 21.9792L75.7292 28.6458C75.1042 29.2708 74.375 29.5833 73.5417 29.5833C72.7083 29.5833 71.9792 29.2708 71.3542 28.6458ZM83.3333 53.125C82.4306 53.125 81.684 52.8299 81.0937 52.2396C80.5035 51.6493 80.2083 50.9028 80.2083 50C80.2083 49.0972 80.5035 48.3507 81.0937 47.7604C81.684 47.1701 82.4306 46.875 83.3333 46.875H92.7083C93.6111 46.875 94.3576 47.1701 94.9479 47.7604C95.5382 48.3507 95.8333 49.0972 95.8333 50C95.8333 50.9028 95.5382 51.6493 94.9479 52.2396C94.3576 52.8299 93.6111 53.125 92.7083 53.125H83.3333ZM50 95.8333C49.0972 95.8333 48.3507 95.5382 47.7604 94.9479C47.1701 94.3576 46.875 93.6111 46.875 92.7083V83.3333C46.875 82.4306 47.1701 81.684 47.7604 81.0937C48.3507 80.5035 49.0972 80.2083 50 80.2083C50.9028 80.2083 51.6493 80.5035 52.2396 81.0937C52.8299 81.684 53.125 82.4306 53.125 83.3333V92.7083C53.125 93.6111 52.8299 94.3576 52.2396 94.9479C51.6493 95.5382 50.9028 95.8333 50 95.8333ZM24.2708 28.6458L17.6042 22.0833C16.9792 21.4583 16.6667 20.7118 16.6667 19.8437C16.6667 18.9757 16.9792 18.2292 17.6042 17.6042C18.2292 16.9792 18.9583 16.6667 19.7917 16.6667C20.625 16.6667 21.3542 16.9792 21.9792 17.6042L28.6458 24.2708C29.2708 24.8958 29.5833 25.625 29.5833 26.4583C29.5833 27.2917 29.2708 28.0208 28.6458 28.6458C28.0208 29.2014 27.2743 29.4792 26.4063 29.4792C25.5382 29.4792 24.8264 29.2014 24.2708 28.6458ZM78.0208 82.3958L71.3542 75.7292C70.7292 75.1042 70.4167 74.375 70.4167 73.5417C70.4167 72.7083 70.7292 71.9792 71.3542 71.3542C71.9097 70.7986 72.6215 70.5208 73.4896 70.5208C74.3576 70.5208 75.1042 70.7986 75.7292 71.3542L82.5 77.9167C83.125 78.5417 83.4201 79.2882 83.3854 80.1562C83.3507 81.0243 83.0556 81.7708 82.5 82.3958C81.875 83.0208 81.1285 83.3333 80.2604 83.3333C79.3924 83.3333 78.6458 83.0208 78.0208 82.3958V82.3958ZM7.29167 53.125C6.38889 53.125 5.64236 52.8299 5.05208 52.2396C4.46181 51.6493 4.16667 50.9028 4.16667 50C4.16667 49.0972 4.46181 48.3507 5.05208 47.7604C5.64236 47.1701 6.38889 46.875 7.29167 46.875H16.6667C17.5694 46.875 18.316 47.1701 18.9063 47.7604C19.4965 48.3507 19.7917 49.0972 19.7917 50C19.7917 50.9028 19.4965 51.6493 18.9063 52.2396C18.316 52.8299 17.5694 53.125 16.6667 53.125H7.29167ZM17.6042 82.3958C16.9792 81.7708 16.6667 81.0417 16.6667 80.2083C16.6667 79.375 16.9792 78.6458 17.6042 78.0208L24.2708 71.3542C24.8264 70.7986 25.5382 70.5208 26.4063 70.5208C27.2743 70.5208 28.0208 70.7986 28.6458 71.3542C29.2708 71.9792 29.5833 72.7257 29.5833 73.5938C29.5833 74.4618 29.2708 75.2083 28.6458 75.8333L22.0833 82.3958C21.4583 83.0208 20.7118 83.3333 19.8437 83.3333C18.9757 83.3333 18.2292 83.0208 17.6042 82.3958V82.3958ZM50 75C43.0556 75 37.1528 72.5694 32.2917 67.7083C27.4306 62.8472 25 56.9444 25 50C25 43.0556 27.4306 37.1528 32.2917 32.2917C37.1528 27.4306 43.0556 25 50 25C56.9444 25 62.8472 27.4306 67.7083 32.2917C72.5694 37.1528 75 43.0556 75 50C75 56.9444 72.5694 62.8472 67.7083 67.7083C62.8472 72.5694 56.9444 75 50 75ZM50 68.75C55.2083 68.75 59.6354 66.9271 63.2812 63.2812C66.9271 59.6354 68.75 55.2083 68.75 50C68.75 44.7917 66.9271 40.3646 63.2812 36.7188C59.6354 33.0729 55.2083 31.25 50 31.25C44.7917 31.25 40.3646 33.0729 36.7188 36.7188C33.0729 40.3646 31.25 44.7917 31.25 50C31.25 55.2083 33.0729 59.6354 36.7188 63.2812C40.3646 66.9271 44.7917 68.75 50 68.75Z" fill="white"/>
</svg>
